<?xml version="1.0" encoding="UTF-8" standalone="no"?>
<!-- Created with Inkscape (http://www.inkscape.org/) -->

<svg
   width="33.072918mm"
   height="33.072918mm"
   viewBox="0 0 33.072918 33.072918"
   version="1.1"
   id="svg5"
   xml:space="preserve"
   inkscape:version="1.2.1 (9c6d41e410, 2022-07-14)"
   sodipodi:docname="drawing2.svg"
   inkscape:export-filename="drawing-G.png"
   inkscape:export-xdpi="383.99997"
   inkscape:export-ydpi="383.99997"
   xmlns:inkscape="http://www.inkscape.org/namespaces/inkscape"
   xmlns:sodipodi="http://sodipodi.sourceforge.net/DTD/sodipodi-0.dtd"
   xmlns:xlink="http://www.w3.org/1999/xlink"
   xmlns="http://www.w3.org/2000/svg"
   xmlns:svg="http://www.w3.org/2000/svg"><sodipodi:namedview
     id="namedview7"
     pagecolor="#ffffff"
     bordercolor="#000000"
     borderopacity="0.25"
     inkscape:showpageshadow="2"
     inkscape:pageopacity="0.0"
     inkscape:pagecheckerboard="0"
     inkscape:deskcolor="#d1d1d1"
     inkscape:document-units="mm"
     showgrid="false"
     inkscape:zoom="3.351218"
     inkscape:cx="27.154306"
     inkscape:cy="87.430898"
     inkscape:window-width="1600"
     inkscape:window-height="845"
     inkscape:window-x="-8"
     inkscape:window-y="-8"
     inkscape:window-maximized="1"
     inkscape:current-layer="layer1" /><defs
     id="defs2"><linearGradient
       id="linearGradient7916"
       inkscape:swatch="solid"><stop
         style="stop-color:#000000;stop-opacity:1;"
         offset="0"
         id="stop7914" /></linearGradient><linearGradient
       inkscape:collect="always"
       id="linearGradient5877"><stop
         style="stop-color:#cc3333;stop-opacity:1;"
         offset="0.03287671"
         id="stop5873" /><stop
         style="stop-color:#cc7e33;stop-opacity:1;"
         offset="0.18912688"
         id="stop5887" /><stop
         style="stop-color:#c8cc34;stop-opacity:1;"
         offset="0.26399451"
         id="stop5885" /><stop
         style="stop-color:#7bcc33;stop-opacity:1;"
         offset="0.38150436"
         id="stop5883" /><stop
         style="stop-color:#33bdcc;stop-opacity:1;"
         offset="0.51184756"
         id="stop5881" /><stop
         style="stop-color:#3533cc;stop-opacity:1;"
         offset="0.6601162"
         id="stop5889" /><stop
         style="stop-color:#cc33ba;stop-opacity:1;"
         offset="0.83046603"
         id="stop5891" /><stop
         style="stop-color:#cc3333;stop-opacity:1;"
         offset="1"
         id="stop5875" /></linearGradient><linearGradient
       inkscape:collect="always"
       xlink:href="#linearGradient5877"
       id="linearGradient5879"
       x1="16.613847"
       y1="126.26588"
       x2="151.76886"
       y2="126.26588"
       gradientUnits="userSpaceOnUse"
       gradientTransform="matrix(0.17286935,0,0,0.17286935,163.77763,10.002904)" /></defs><g
     inkscape:label="Layer 1"
     inkscape:groupmode="layer"
     id="layer1"
     transform="translate(-161.79556,-19.885658)"><g
       id="g5846"
       style="fill:#1ecdbc;fill-opacity:0.66436;stroke:#7fdd31;stroke-opacity:1"
       transform="matrix(1.3048617,0,0,1.4450639,-57.546877,-12.264868)"><g
         id="g5834"
         transform="matrix(0.99999995,2.7777462e-4,-3.4067253e-4,0.99999995,2.631818,1.4271852)"
         style="fill:#1ecdbc;fill-opacity:0.66436;stroke:#7fdd31;stroke-opacity:1"><g
           id="g5828"
           transform="matrix(0.17286935,0,0,0.17286935,163.77764,10.020663)"
           style="fill:#1ecdbc;fill-opacity:0.66436;stroke:#7fdd31;stroke-width:4.5304;stroke-dasharray:none;stroke-opacity:1" /><g
           id="g5832"
           transform="matrix(0.17286935,0,0,0.17286935,163.77764,10.020663)"
           style="fill:#1ecdbc;fill-opacity:0.66436;stroke:#7fdd31;stroke-width:1.31626;stroke-dasharray:none;stroke-opacity:1" /></g></g><g
       id="g20048"
       transform="matrix(1.0293723,0,0,1.0293722,-5.4843541,-0.38242877)"><path
         id="path5830"
         style="fill:none;fill-opacity:0;stroke:url(#linearGradient5879);stroke-width:0.31835692;stroke-dasharray:none;stroke-opacity:1"
         d="m 178.7059,35.301512 v 0.04574 c -0.41183,0.356392 -0.78016,0.762274 -1.11794,1.189197 -0.24072,0.30425 -0.4727,0.6214 -0.66229,0.960506 -0.12875,0.230338 -0.23697,0.47339 -0.2946,0.731813 -0.15867,0.711642 0.20825,1.256248 0.93137,1.380521 0.90402,0.155373 1.85231,-0.0301 2.7443,-0.170055 0.30023,-0.04711 0.64628,-0.156198 0.95067,-0.122625 0.55623,0.06129 0.56661,1.018776 1.14214,0.989229 0.24525,-0.01262 0.33704,-0.270634 0.35319,-0.478286 0.0305,-0.390789 -0.0896,-0.775677 0.35388,-0.959911 0.43135,-0.179248 0.91394,-0.251425 1.36231,-0.379217 1.17749,-0.335582 2.37849,-0.732546 3.47612,-1.27761 0.40565,-0.201477 0.8414,-0.379353 1.18919,-0.674365 l -2.79004,1.036248 -3.61332,1.067716 c 0,-1.515496 -0.19659,-3.016764 -0.22636,-4.528097 -0.009,-0.469869 -0.14998,-1.25602 0.21867,-1.615386 0.39642,-0.386444 0.98786,-0.658221 1.47131,-0.920028 1.25918,-0.681912 2.5876,-1.172913 3.9335,-1.647906 0.45592,-0.160907 0.89967,-0.227687 1.37009,-0.322135 0.0889,-0.01784 0.42441,-0.07373 0.40113,-0.220139 -0.0213,-0.13415 -0.31432,-0.105793 -0.40113,-0.09921 -0.44448,0.03366 -0.87863,0.162874 -1.32435,0.202666 -1.10806,0.09889 -2.22824,0.127289 -3.3389,0.198641 -0.76287,0.04903 -1.52158,0.165391 -2.28692,0.169827 0.0964,-1.354312 0.17193,-2.714296 0.23235,-4.070712 0.0146,-0.328188 0.11293,-0.667644 0.0941,-0.994729 -0.005,-0.08843 -0.0522,-0.304077 -0.18904,-0.234051 -0.14078,0.07207 -0.15486,0.317753 -0.16753,0.452347 -0.0396,0.419888 -0.0412,0.821667 -0.14852,1.233816 -0.25865,0.993117 -0.69188,1.931302 -1.24993,2.790039 -0.19197,0.295378 -0.38188,0.677248 -0.66545,0.89487 -0.1879,0.144168 -0.4235,0.157432 -0.6504,0.178975 -0.3505,0.03325 -0.70099,0.05745 -1.05189,0.08521 -1.41748,0.112104 -2.83372,0.185743 -4.25367,0.251148 -0.4711,0.02173 -0.95195,0.01971 -1.41606,0.115216 -0.14312,0.02945 -0.41553,0.08663 -0.43159,0.272098 -0.0114,0.132411 0.12588,0.233539 0.21854,0.302879 0.27567,0.206141 0.57091,0.389188 0.85156,0.589018 0.73131,0.520594 1.52222,0.927162 2.28691,1.393098 0.45812,0.279096 0.87951,0.607634 1.32642,0.902966 v 0.04574 c -0.51328,0.437715 -0.97798,0.931186 -1.50937,1.348092 -1.0335,0.810802 -2.22151,1.375533 -3.47611,1.748072 -0.83738,0.248635 -1.74172,0.400578 -2.60709,0.199465 -1.87302,-0.435337 -2.78925,-2.261074 -2.73712,-4.073182 0.0577,-2.007044 1.04748,-3.8884 2.1861,-5.488602 0.46913,-0.659319 0.9609,-1.307202 1.55795,-1.857296 1.11144,-1.024004 2.4454,-1.864182 3.93281,-2.20395 0.51529,-0.117706 1.02546,-0.210249 1.55511,-0.155876 0.90388,0.0928 1.9989,0.596328 2.32126,1.518441 0.0834,0.238467 0.0704,0.484017 0.0571,0.731932 0.44284,-0.66268 -0.16242,-1.441567 -0.6879,-1.8433 -1.12512,-0.860202 -2.70428,-0.731893 -3.97741,-0.289103 -2.33046,0.81051 -4.03232,2.471188 -5.35598,4.510797 -0.77842,1.199442 -1.41242,2.476366 -1.69819,3.887759 -0.35794,1.767833 -0.0357,4.001421 1.61132,5.036753 0.31949,0.200838 0.68774,0.351912 1.05197,0.449426 0.94276,0.252339 1.91346,0.112837 2.83578,-0.151989 1.14977,-0.330094 2.21497,-0.81675 3.20168,-1.495142 0.46045,-0.316599 0.87104,-0.68525 1.28067,-1.063827 0.17564,-0.162326 0.38851,-0.423537 0.64034,-0.458024 0.176,-0.0241 0.3289,0.09445 0.45688,0.198917 0.25861,0.211127 0.49109,0.455232 0.73232,0.685572 m 3.75055,-8.415856 -0.13722,3.01873 -1.55511,0.137215 1.02674,-1.692319 0.66559,-1.463626 m 5.21417,2.881515 v 0.04574 c -1.19524,0.386031 -2.36321,0.882887 -3.47612,1.465822 -0.57475,0.301097 -1.11318,0.666454 -1.69232,0.958309 l 0.0461,-1.371967 0.10497,-0.60251 0.40058,-0.138359 0.91202,-0.08411 3.70481,-0.272921 m -5.35139,0.411645 c -0.0316,0.443206 -0.0453,0.882064 -0.0458,1.326412 -3.5e-4,0.277496 0.0293,0.594873 -0.0933,0.852609 -0.15149,0.318431 -0.50541,0.532851 -0.77572,0.74119 -0.53976,0.415991 -1.0792,0.832712 -1.6008,1.27148 -0.22645,0.190455 -0.54685,0.584628 -0.86903,0.581105 -0.33901,-0.0037 -0.78062,-0.508884 -0.94797,-0.772245 -0.14573,-0.229287 -0.0267,-0.426052 0.1239,-0.616324 0.23313,-0.294647 0.48588,-0.573468 0.71873,-0.868617 0.38764,-0.491276 0.77102,-0.993758 1.12576,-1.50932 0.18378,-0.267111 0.35704,-0.629406 0.65383,-0.788347 0.4675,-0.250325 1.19259,-0.165664 1.71039,-0.217943 m -2.05823,0.182954 c -0.77115,1.250807 -1.72049,2.384111 -2.69856,3.476114 h -0.0457 l -4.5281,-2.972993 3.20169,-0.192969 4.07071,-0.310152 m 1.96675,2.424132 c 0,1.451597 0.0676,2.896106 0.1497,4.345143 0.0198,0.349898 0.0423,0.699751 0.0549,1.050016 0.006,0.169505 0.008,0.362064 -0.1336,0.481258 -0.20537,0.173211 -0.56821,0.197773 -0.76974,0.01376 -0.24959,-0.227914 -0.41475,-0.579733 -0.60045,-0.858965 -0.33366,-0.501705 -0.67954,-0.992431 -1.05541,-1.463628 -0.1964,-0.246164 -0.57969,-0.580374 -0.59886,-0.914493 -0.0202,-0.352185 0.43241,-0.653875 0.66655,-0.853751 0.73524,-0.627758 1.4983,-1.239783 2.28687,-1.799347 m -3.29316,2.79004 c 0.87022,1.076406 1.71478,2.1642 2.3784,3.384637 -0.88481,0.122761 -1.76148,0.316372 -2.65283,0.388731 -0.44929,0.03645 -0.9949,0.0563 -1.40252,-0.169507 -0.46141,-0.255585 -0.38507,-0.808289 -0.21383,-1.225467 0.36211,-0.882201 1.12718,-1.816499 1.89078,-2.378394 m 3.52186,3.430375 v 1.051982 c -0.31354,-0.232442 -0.48181,-0.565646 -0.64034,-0.914767 z m -3.75052,-3.704799 v 0.04574 c -0.41183,0.356392 -0.78016,0.762274 -1.11794,1.189197 -0.24072,0.30425 -0.4727,0.6214 -0.66229,0.960506 -0.12875,0.230338 -0.23697,0.47339 -0.2946,0.731813 -0.15867,0.711642 0.20825,1.256248 0.93137,1.380521 0.90402,0.155373 1.85231,-0.0301 2.7443,-0.170055 0.30023,-0.04711 0.64628,-0.156198 0.95067,-0.122625 0.55623,0.06129 0.56661,1.018776 1.14214,0.989229 0.24525,-0.01262 0.33704,-0.270634 0.35319,-0.478286 0.0305,-0.390789 -0.0896,-0.775677 0.35388,-0.959911 0.43135,-0.179248 0.91394,-0.251425 1.36231,-0.379217 1.17749,-0.335582 2.37849,-0.732546 3.47612,-1.27761 0.40565,-0.201477 0.8414,-0.379353 1.18919,-0.674365 l -2.79004,1.036248 -3.61332,1.067716 c 0,-1.515496 -0.19659,-3.016764 -0.22636,-4.528097 -0.009,-0.469869 -0.14998,-1.25602 0.21867,-1.615386 0.39642,-0.386444 0.98786,-0.658221 1.47131,-0.920028 1.25918,-0.681912 2.5876,-1.172913 3.9335,-1.647906 0.45592,-0.160907 0.89967,-0.227687 1.37009,-0.322135 0.0889,-0.01784 0.42441,-0.07373 0.40113,-0.220139 -0.0213,-0.13415 -0.31432,-0.105793 -0.40113,-0.09921 -0.44448,0.03366 -0.87863,0.162874 -1.32435,0.202666 -1.10806,0.09889 -2.22824,0.127289 -3.3389,0.198641 -0.76287,0.04903 -1.52158,0.165391 -2.28692,0.169827 0.0964,-1.354312 0.17193,-2.714296 0.23235,-4.070712 0.0146,-0.328188 0.11293,-0.667644 0.0941,-0.994729 -0.005,-0.08843 -0.0522,-0.304077 -0.18904,-0.234051 -0.14078,0.07207 -0.15486,0.317753 -0.16753,0.452347 -0.0396,0.419888 -0.0412,0.821667 -0.14852,1.233816 -0.25865,0.993117 -0.69188,1.931302 -1.24993,2.790039 -0.19197,0.295378 -0.38188,0.677248 -0.66545,0.89487 -0.1879,0.144168 -0.4235,0.157432 -0.6504,0.178975 -0.3505,0.03325 -0.70099,0.05745 -1.05189,0.08521 -1.41748,0.112104 -2.83372,0.185743 -4.25367,0.251148 -0.4711,0.02173 -0.95195,0.01971 -1.41606,0.115216 -0.14312,0.02945 -0.41553,0.08663 -0.43159,0.272098 -0.0114,0.132411 0.12588,0.233539 0.21854,0.302879 0.27567,0.206141 0.57091,0.389188 0.85156,0.589018 0.73131,0.520594 1.52222,0.927162 2.28691,1.393098 0.45812,0.279096 0.87951,0.607634 1.32642,0.902966 v 0.04574 c -0.51328,0.437715 -0.97798,0.931186 -1.50937,1.348092 -1.0335,0.810802 -2.22151,1.375533 -3.47611,1.748072 -0.83738,0.248635 -1.74172,0.400578 -2.60709,0.199465 -1.87302,-0.435337 -2.78925,-2.261074 -2.73712,-4.073182 0.0577,-2.007044 1.04748,-3.8884 2.1861,-5.488602 0.46913,-0.659319 0.9609,-1.307202 1.55795,-1.857296 1.11144,-1.024004 2.4454,-1.864182 3.93281,-2.20395 0.51529,-0.117706 1.02546,-0.210249 1.55511,-0.155876 0.90388,0.0928 1.9989,0.596328 2.32126,1.518441 0.0834,0.238467 0.0704,0.484017 0.0571,0.731932 0.44284,-0.66268 -0.16242,-1.441567 -0.6879,-1.8433 -1.12512,-0.860202 -2.70428,-0.731893 -3.97741,-0.289103 -2.33046,0.81051 -4.03232,2.471188 -5.35598,4.510797 -0.77842,1.199442 -1.41242,2.476366 -1.69819,3.887759 -0.35794,1.767833 -0.0357,4.001421 1.61132,5.036753 0.31949,0.200838 0.68774,0.351912 1.05197,0.449426 0.94276,0.252339 1.91346,0.112837 2.83578,-0.151989 1.14977,-0.330094 2.21497,-0.81675 3.20168,-1.495142 0.46045,-0.316599 0.87104,-0.68525 1.28067,-1.063827 0.17564,-0.162326 0.38851,-0.423537 0.64034,-0.458024 0.176,-0.0241 0.3289,0.09445 0.45688,0.198917 0.25861,0.211127 0.49109,0.455232 0.73232,0.685572 m 3.75055,-8.415856 -0.13722,3.01873 -1.55511,0.137215 1.02674,-1.692319 0.66559,-1.463626 m 5.21417,2.881515 v 0.04574 c -1.19524,0.386031 -2.36321,0.882887 -3.47612,1.465822 -0.57475,0.301097 -1.11318,0.666454 -1.69232,0.958309 l 0.0461,-1.371967 0.10497,-0.60251 0.40058,-0.138359 0.91202,-0.08411 3.70481,-0.272921 m -5.35139,0.411645 c -0.0316,0.443206 -0.0453,0.882064 -0.0458,1.326412 -3.5e-4,0.277496 0.0293,0.594873 -0.0933,0.852609 -0.15149,0.318431 -0.50541,0.532851 -0.77572,0.74119 -0.53976,0.415991 -1.0792,0.832712 -1.6008,1.27148 -0.22645,0.190455 -0.54685,0.584628 -0.86903,0.581105 -0.33901,-0.0037 -0.78062,-0.508884 -0.94797,-0.772245 -0.14573,-0.229287 -0.0267,-0.426052 0.1239,-0.616324 0.23313,-0.294647 0.48588,-0.573468 0.71873,-0.868617 0.38764,-0.491276 0.77102,-0.993758 1.12576,-1.50932 0.18378,-0.267111 0.35704,-0.629406 0.65383,-0.788347 0.4675,-0.250325 1.19259,-0.165664 1.71039,-0.217943 m -2.05823,0.182954 c -0.77115,1.250807 -1.72049,2.384111 -2.69856,3.476114 h -0.0457 l -4.5281,-2.972993 3.20169,-0.192969 4.07071,-0.310152 m 1.96675,2.424132 c 0,1.451597 0.0676,2.896106 0.1497,4.345143 0.0198,0.349898 0.0423,0.699751 0.0549,1.050016 0.006,0.169505 0.008,0.362064 -0.1336,0.481258 -0.20537,0.173211 -0.56821,0.197773 -0.76974,0.01376 -0.24959,-0.227914 -0.41475,-0.579733 -0.60045,-0.858965 -0.33366,-0.501705 -0.67954,-0.992431 -1.05541,-1.463628 -0.1964,-0.246164 -0.57969,-0.580374 -0.59886,-0.914493 -0.0202,-0.352185 0.43241,-0.653875 0.66655,-0.853751 0.73524,-0.627758 1.4983,-1.239783 2.28687,-1.799347 m -3.29316,2.79004 c 0.87022,1.076406 1.71478,2.1642 2.3784,3.384637 -0.88481,0.122761 -1.76148,0.316372 -2.65283,0.388731 -0.44929,0.03645 -0.9949,0.0563 -1.40252,-0.169507 -0.46141,-0.255585 -0.38507,-0.808289 -0.21383,-1.225467 0.36211,-0.882201 1.12718,-1.816499 1.89078,-2.378394 m 3.52186,3.430375 v 1.051982 c -0.31354,-0.232442 -0.48181,-0.565646 -0.64034,-0.914767 z"
         transform="matrix(1.3048616,4.0140202e-4,-4.4453175e-4,1.4450638,-54.112719,-10.202494)" /><g
         id="g5824"
         transform="matrix(1.3048617,0,0,1.4450638,-54.126352,-10.474959)"><g
           id="g2342"
           transform="matrix(0.17286935,0,0,0.17286935,163.77764,10.020663)"
           style="fill:#000000;fill-opacity:1;stroke:none;stroke-width:4.5304;stroke-dasharray:none;stroke-opacity:1"><path
             style="fill:#000000;fill-opacity:1;stroke:none;stroke-width:4.5304;stroke-dasharray:none;stroke-opacity:1"
             d="m 86.35576,146.34524 v 0.26458 c -2.38231,2.06163 -4.513,4.40954 -6.46694,6.87917 -1.39251,1.76 -2.73447,3.59462 -3.83117,5.55625 -0.7448,1.33244 -1.37081,2.73843 -1.70418,4.23333 -0.91784,4.11665 1.20465,7.26704 5.38771,7.98592 5.22949,0.89879 10.71509,-0.1741 15.875,-0.98372 1.73672,-0.27252 3.738565,-0.90356 5.49937,-0.70935 3.2176,0.35454 3.27766,5.89333 6.60691,5.72241 1.4187,-0.073 1.94972,-1.56554 2.04312,-2.76675 0.17621,-2.2606 -0.51859,-4.48707 2.04708,-5.55281 2.49528,-1.0369 5.2869,-1.45442 7.88061,-2.19366 6.81144,-1.94125 13.75886,-4.23757 20.10833,-7.39061 2.34659,-1.16549 4.86728,-2.19445 6.87917,-3.90101 l -16.13959,5.9944 -20.90207,6.17643 c 0,-8.76671 -1.13718,-17.45112 -1.30943,-26.19375 -0.0537,-2.71806 -0.86757,-7.26572 1.26498,-9.34455 2.29314,-2.23547 5.71447,-3.80762 8.51111,-5.3221 7.28398,-3.94467 14.96854,-6.78497 22.75416,-9.53267 2.63737,-0.9308 5.20436,-1.3171 7.9256,-1.86346 0.51408,-0.10319 2.45507,-0.42651 2.32039,-1.27344 -0.12329,-0.77602 -1.81821,-0.61198 -2.32039,-0.57388 -2.57122,0.19473 -5.08265,0.94218 -7.66101,1.17237 -6.4098,0.57203 -12.8897,0.73633 -19.31458,1.14908 -4.41299,0.28364 -8.80189,0.95674 -13.22917,0.9824 0.55748,-7.83431 0.99457,-15.701432 1.34409,-23.547912 0.0847,-1.89847 0.65325,-3.86213 0.54451,-5.75422 -0.0294,-0.51157 -0.30216,-1.759 -1.09353,-1.35392 -0.81438,0.41688 -0.89587,1.83811 -0.96916,2.6167 -0.22887,2.42893 -0.23813,4.75311 -0.85911,7.13727 -1.49621,5.7449 -4.00235,11.172032 -7.23053,16.139582 -1.11047,1.70868 -2.20902,3.91769 -3.84943,5.17657 -1.08691,0.83397 -2.44978,0.9107 -3.76238,1.03532 -2.0275,0.19235 -4.055,0.33231 -6.08489,0.49292 -8.1997,0.64849 -16.39226,1.07447 -24.60625,1.45282 -2.7252,0.12568 -5.50677,0.11404 -8.1915,0.66649 -0.82788,0.17039 -2.40374,0.50112 -2.4966,1.57401 -0.0661,0.76596 0.72813,1.35096 1.26418,1.75207 1.59464,1.19247 3.30252,2.25134 4.92601,3.4073 4.23042,3.01149 8.8056,5.36337 13.22916,8.05868 2.65007,1.61449 5.08768,3.51499 7.67292,5.2234 v 0.26459 c -2.96915,2.53206 -5.65732,5.38665 -8.73125,7.79833 -5.97852,4.69026 -12.85081,7.95707 -20.10833,10.1121 -4.84399,1.43828 -10.07534,2.31723 -15.08125,1.15385 -10.83488,-2.5183 -16.13501,-13.07967 -15.83346,-23.5622 0.33398,-11.61018 6.05935,-22.49329 12.64597,-31.75 2.71378,-3.813972 5.55852,-7.561792 9.01229,-10.743932 6.42937,-5.92357 14.14595,-10.78376 22.7502,-12.74922 2.98079,-0.6809 5.93196,-1.21623 8.99583,-0.9017 5.2287,0.53679 11.56309,3.44959 13.42787,8.78375 0.48234,1.37946 0.40693,2.7999 0.33046,4.23402 2.5617,-3.83342 -0.93953,-8.33906 -3.97933,-10.66297 -6.50848,-4.97602 -15.64349,-4.23379 -23.00817,-1.67238 -13.48105,4.68857 -23.3258,14.29512 -30.98281,26.093682 -4.50297,6.93843 -8.17047,14.32507 -9.82356,22.48958 -2.07057,10.22641 -0.20619,23.14708 9.32101,29.13618 1.84819,1.16179 3.97841,2.03571 6.08536,2.5998 5.4536,1.45971 11.06885,0.65273 16.40417,-0.87921 6.6511,-1.9095 12.81298,-4.72467 18.52083,-8.64897 2.66356,-1.83144 5.03873,-3.96398 7.40834,-6.15394 1.016,-0.93901 2.24737,-2.45004 3.70416,-2.64954 1.01812,-0.13943 1.90262,0.54637 2.64293,1.15068 1.49595,1.22131 2.84083,2.63339 4.23624,3.96584 m 21.69585,-48.683332 -0.79375,17.462492 -8.99585,0.79375 5.93938,-9.78958 3.85022,-8.466662 m 30.16249,16.668742 v 0.26459 c -6.91409,2.23308 -13.67049,5.10725 -20.10833,8.47936 -3.32475,1.74176 -6.43943,3.85525 -9.78958,5.54355 l 0.26643,-7.93644 0.60722,-3.48535 2.31722,-0.80037 5.2758,-0.48657 21.43124,-1.57877 m -30.95624,2.38125 c -0.18257,2.56382 -0.26221,5.10249 -0.26485,7.67292 -0.002,1.60523 0.1696,3.44117 -0.53975,4.9321 -0.8763,1.84203 -2.92365,3.08239 -4.48734,4.28757 -3.12235,2.40639 -6.24285,4.817 -9.26016,7.35515 -1.30995,1.10173 -3.16336,3.38191 -5.02708,3.36153 -1.96109,-0.0212 -4.51565,-2.94375 -5.48376,-4.46722 -0.84296,-1.32636 -0.15425,-2.46459 0.71676,-3.56526 1.34858,-1.70445 2.81067,-3.31735 4.15766,-5.0247 2.24235,-2.84189 4.46008,-5.74861 6.51219,-8.73099 1.0631,-1.54516 2.06534,-3.64093 3.78222,-4.56036 2.70432,-1.44806 6.89876,-0.95832 9.89411,-1.26074 m -11.90626,1.05834 c -4.46088,7.23556 -9.95257,13.7914 -15.61042,20.10833 h -0.26459 l -26.19375,-17.19792 18.52084,-1.11627 23.54792,-1.79414 m 11.37709,14.02291 c 0,8.39708 0.39079,16.75315 0.86598,25.13542 0.11456,2.02406 0.24474,4.04786 0.31776,6.07404 0.0352,0.98054 0.0447,2.09444 -0.77284,2.78394 -1.18798,1.00198 -3.28692,1.14406 -4.45268,0.0796 -1.44383,-1.31842 -2.39924,-3.35359 -3.47346,-4.96887 -1.93013,-2.90222 -3.93091,-5.74093 -6.10526,-8.46667 -1.13612,-1.42399 -3.35333,-3.3573 -3.46419,-5.29008 -0.11694,-2.03729 2.50137,-3.78248 3.85578,-4.93871 4.25317,-3.6314 8.66723,-7.17179 13.22891,-10.40871 M 87.67868,147.9327 c 5.03396,6.2267 9.91949,12.51928 13.75834,19.57916 -5.11837,0.71014 -10.18964,1.83012 -15.34584,2.2487 -2.599,0.21087 -5.75522,0.3257 -8.11319,-0.98055 -2.66911,-1.47849 -2.22752,-4.67572 -1.23692,-7.08898 2.0947,-5.10328 6.52039,-10.50793 10.93761,-13.75833 m 20.37293,19.84374 v 6.08542 c -1.81372,-1.34461 -2.78713,-3.2721 -3.70417,-5.29167 z"
             id="path2340" /></g><g
           id="g2065"
           transform="matrix(0.17286935,0,0,0.17286935,163.77764,10.020663)"
           style="fill:none;fill-opacity:1;stroke:#000000;stroke-width:1.31626;stroke-dasharray:none;stroke-opacity:1"><path
             style="fill:none;fill-opacity:1;stroke:#000000;stroke-width:1.31626;stroke-dasharray:none;stroke-opacity:1"
             d="m 86.35576,146.34524 v 0.26458 c -2.38231,2.06163 -4.513,4.40954 -6.46694,6.87917 -1.39251,1.76 -2.73447,3.59462 -3.83117,5.55625 -0.7448,1.33244 -1.37081,2.73843 -1.70418,4.23333 -0.91784,4.11665 1.20465,7.26704 5.38771,7.98592 5.22949,0.89879 10.71509,-0.1741 15.875,-0.98372 1.73672,-0.27252 3.738565,-0.90356 5.49937,-0.70935 3.2176,0.35454 3.27766,5.89333 6.60691,5.72241 1.4187,-0.073 1.94972,-1.56554 2.04312,-2.76675 0.17621,-2.2606 -0.51859,-4.48707 2.04708,-5.55281 2.49528,-1.0369 5.2869,-1.45442 7.88061,-2.19366 6.81144,-1.94125 13.75886,-4.23757 20.10833,-7.39061 2.34659,-1.16549 4.86728,-2.19445 6.87917,-3.90101 l -16.13959,5.9944 -20.90207,6.17643 c 0,-8.76671 -1.13718,-17.45112 -1.30943,-26.19375 -0.0537,-2.71806 -0.86757,-7.26572 1.26498,-9.34455 2.29314,-2.23547 5.71447,-3.80762 8.51111,-5.3221 7.28398,-3.94467 14.96854,-6.78497 22.75416,-9.53267 2.63737,-0.9308 5.20436,-1.3171 7.9256,-1.86346 0.51408,-0.10319 2.45507,-0.42651 2.32039,-1.27344 -0.12329,-0.77602 -1.81821,-0.61198 -2.32039,-0.57388 -2.57122,0.19473 -5.08265,0.94218 -7.66101,1.17237 -6.4098,0.57203 -12.8897,0.73633 -19.31458,1.14908 -4.41299,0.28364 -8.80189,0.95674 -13.22917,0.9824 0.55748,-7.83431 0.99457,-15.701432 1.34409,-23.547912 0.0847,-1.89847 0.65325,-3.86213 0.54451,-5.75422 -0.0294,-0.51157 -0.30216,-1.759 -1.09353,-1.35392 -0.81438,0.41688 -0.89587,1.83811 -0.96916,2.6167 -0.22887,2.42893 -0.23813,4.75311 -0.85911,7.13727 -1.49621,5.7449 -4.00235,11.172032 -7.23053,16.139582 -1.11047,1.70868 -2.20902,3.91769 -3.84943,5.17657 -1.08691,0.83397 -2.44978,0.9107 -3.76238,1.03532 -2.0275,0.19235 -4.055,0.33231 -6.08489,0.49292 -8.1997,0.64849 -16.39226,1.07447 -24.60625,1.45282 -2.7252,0.12568 -5.50677,0.11404 -8.1915,0.66649 -0.82788,0.17039 -2.40374,0.50112 -2.4966,1.57401 -0.0661,0.76596 0.72813,1.35096 1.26418,1.75207 1.59464,1.19247 3.30252,2.25134 4.92601,3.4073 4.23042,3.01149 8.8056,5.36337 13.22916,8.05868 2.65007,1.61449 5.08768,3.51499 7.67292,5.2234 v 0.26459 c -2.96915,2.53206 -5.65732,5.38665 -8.73125,7.79833 -5.97852,4.69026 -12.85081,7.95707 -20.10833,10.1121 -4.84399,1.43828 -10.07534,2.31723 -15.08125,1.15385 -10.83488,-2.5183 -16.13501,-13.07967 -15.83346,-23.5622 0.33398,-11.61018 6.05935,-22.49329 12.64597,-31.75 2.71378,-3.813972 5.55852,-7.561792 9.01229,-10.743932 6.42937,-5.92357 14.14595,-10.78376 22.7502,-12.74922 2.98079,-0.6809 5.93196,-1.21623 8.99583,-0.9017 5.2287,0.53679 11.56309,3.44959 13.42787,8.78375 0.48234,1.37946 0.40693,2.7999 0.33046,4.23402 2.5617,-3.83342 -0.93953,-8.33906 -3.97933,-10.66297 -6.50848,-4.97602 -15.64349,-4.23379 -23.00817,-1.67238 -13.48105,4.68857 -23.3258,14.29512 -30.98281,26.093682 -4.50297,6.93843 -8.17047,14.32507 -9.82356,22.48958 -2.07057,10.22641 -0.20619,23.14708 9.32101,29.13618 1.84819,1.16179 3.97841,2.03571 6.08536,2.5998 5.4536,1.45971 11.06885,0.65273 16.40417,-0.87921 6.6511,-1.9095 12.81298,-4.72467 18.52083,-8.64897 2.66356,-1.83144 5.03873,-3.96398 7.40834,-6.15394 1.016,-0.93901 2.24737,-2.45004 3.70416,-2.64954 1.01812,-0.13943 1.90262,0.54637 2.64293,1.15068 1.49595,1.22131 2.84083,2.63339 4.23624,3.96584 m 21.69585,-48.683332 -0.79375,17.462492 -8.99585,0.79375 5.93938,-9.78958 3.85022,-8.466662 m 30.16249,16.668742 v 0.26459 c -6.91409,2.23308 -13.67049,5.10725 -20.10833,8.47936 -3.32475,1.74176 -6.43943,3.85525 -9.78958,5.54355 l 0.26643,-7.93644 0.60722,-3.48535 2.31722,-0.80037 5.2758,-0.48657 21.43124,-1.57877 m -30.95624,2.38125 c -0.18257,2.56382 -0.26221,5.10249 -0.26485,7.67292 -0.002,1.60523 0.1696,3.44117 -0.53975,4.9321 -0.8763,1.84203 -2.92365,3.08239 -4.48734,4.28757 -3.12235,2.40639 -6.24285,4.817 -9.26016,7.35515 -1.30995,1.10173 -3.16336,3.38191 -5.02708,3.36153 -1.96109,-0.0212 -4.51565,-2.94375 -5.48376,-4.46722 -0.84296,-1.32636 -0.15425,-2.46459 0.71676,-3.56526 1.34858,-1.70445 2.81067,-3.31735 4.15766,-5.0247 2.24235,-2.84189 4.46008,-5.74861 6.51219,-8.73099 1.0631,-1.54516 2.06534,-3.64093 3.78222,-4.56036 2.70432,-1.44806 6.89876,-0.95832 9.89411,-1.26074 m -11.90626,1.05834 c -4.46088,7.23556 -9.95257,13.7914 -15.61042,20.10833 h -0.26459 l -26.19375,-17.19792 18.52084,-1.11627 23.54792,-1.79414 m 11.37709,14.02291 c 0,8.39708 0.39079,16.75315 0.86598,25.13542 0.11456,2.02406 0.24474,4.04786 0.31776,6.07404 0.0352,0.98054 0.0447,2.09444 -0.77284,2.78394 -1.18798,1.00198 -3.28692,1.14406 -4.45268,0.0796 -1.44383,-1.31842 -2.39924,-3.35359 -3.47346,-4.96887 -1.93013,-2.90222 -3.93091,-5.74093 -6.10526,-8.46667 -1.13612,-1.42399 -3.35333,-3.3573 -3.46419,-5.29008 -0.11694,-2.03729 2.50137,-3.78248 3.85578,-4.93871 4.25317,-3.6314 8.66723,-7.17179 13.22891,-10.40871 M 87.67868,147.9327 c 5.03396,6.2267 9.91949,12.51928 13.75834,19.57916 -5.11837,0.71014 -10.18964,1.83012 -15.34584,2.2487 -2.599,0.21087 -5.75522,0.3257 -8.11319,-0.98055 -2.66911,-1.47849 -2.22752,-4.67572 -1.23692,-7.08898 2.0947,-5.10328 6.52039,-10.50793 10.93761,-13.75833 m 20.37293,19.84374 v 6.08542 c -1.81372,-1.34461 -2.78713,-3.2721 -3.70417,-5.29167 z"
             id="path2063" /></g></g></g></g></svg>
